<svg xmlns="http://www.w3.org/2000/svg" width="744.094" height="1052.362"><path d="M376.921 228.975c-9.542-.022-19.072.443-28.583 1.31-3.122 12.365-4.967 26.971-4.954 42.589 0 8.5.594 16.675 1.594 24.369-20.494 2.676-40.679 7.928-60.069 15.885-2.985-7.133-6.58-14.421-10.818-21.75-7.854-13.585-16.792-25.358-25.736-34.504-16.789 7.706-33.054 17.055-48.511 27.956 3.467 12.34 9.26 25.946 17.138 39.572 4.196 7.257 8.681 14.002 13.324 20.099-8.264 6.328-16.228 13.236-23.8 20.782-7.376 7.351-14.159 15.102-20.383 23.117-6.069-4.601-12.775-9.11-19.985-13.266-13.716-7.907-27.4-13.64-39.799-17.081-10.933 15.348-20.357 31.483-28.127 48.169 9.225 9.092 21.184 18.16 35.016 26.134 7.115 4.102 14.19 7.61 21.124 10.533-8.116 19.414-13.591 39.625-16.398 60.183-7.411-.909-15.26-1.43-23.401-1.424-16.071.018-30.979 1.974-43.557 5.295-1.734 18.448-1.823 37.055-.228 55.514 12.635 3.334 27.663 5.252 43.842 5.238 8 0 15.764-.475 23.06-1.367 2.614 20.622 7.937 40.95 15.886 60.468-6.695 2.872-13.584 6.337-20.441 10.306-14.155 8.192-26.289 17.495-35.586 26.818 7.594 16.552 16.748 32.567 27.444 47.828 12.762-3.404 26.939-9.302 41.166-17.537 6.759-3.912 13.087-8.103 18.846-12.413 6.344 8.302 13.326 16.309 20.896 23.914 7.414 7.448 15.199 14.338 23.288 20.612-4.263 5.735-8.429 12.014-12.299 18.732-8.249 14.323-14.16 28.619-17.537 41.45 15.14 10.728 31.051 19.959 47.486 27.615 9.457-9.379 18.921-21.751 27.216-36.155 3.828-6.648 7.161-13.257 9.964-19.757 19.545 8.115 39.95 13.548 60.639 16.284-.814 7.05-1.316 14.455-1.31 22.149.018 16.584 2.067 31.987 5.58 44.81 18.264 1.629 36.68 1.634 54.945 0 3.489-12.835 5.48-28.27 5.466-44.867 0-7.682-.429-15.11-1.253-22.149 20.679-2.737 41.04-8.168 60.582-16.284 2.825 6.536 6.156 13.244 10.021 19.928 8.292 14.34 17.781 26.639 27.216 35.985 16.451-7.667 32.329-16.866 47.486-27.615-3.4-12.818-9.327-27.153-17.594-41.45-3.882-6.715-8.024-12.946-12.299-18.675 7.848-6.086 15.387-12.736 22.604-19.928 7.834-7.807 14.989-16.046 21.523-24.597 5.804 4.336 12.141 8.595 18.96 12.526 14.174 8.171 28.382 14.033 41.109 17.423 10.711-15.283 19.842-31.302 27.444-47.885-9.314-9.296-21.49-18.602-35.643-26.761-6.863-3.957-13.683-7.388-20.384-10.249 7.956-19.518 13.208-39.839 15.829-60.468 7.354.894 15.16 1.373 23.23 1.367 16.098-.018 31.08-1.97 43.671-5.295 1.597-18.467 1.564-37.055-.171-55.514-12.57-3.284-27.513-5.195-43.557-5.181-8.152 0-16.04.499-23.458 1.423-2.796-20.541-8.241-40.778-16.341-60.183 6.97-2.946 14.142-6.507 21.295-10.647 13.755-7.961 25.592-17.012 34.789-26.077-7.774-16.707-17.124-32.856-28.07-48.226-12.389 3.463-26.055 9.273-39.742 17.195-7.225 4.182-13.91 8.641-19.985 13.267-6.059-7.812-12.66-15.304-19.814-22.49-7.725-7.76-15.857-14.867-24.312-21.352 4.667-6.139 9.167-12.954 13.38-20.27 7.827-13.591 13.574-27.202 17.024-39.515-15.459-10.912-31.713-20.241-48.511-27.956-8.913 9.158-17.799 20.92-25.622 34.504-4.22 7.328-7.847 14.677-10.818 21.807-19.363-7.964-39.596-13.304-60.069-15.999.994-7.723 1.545-15.891 1.537-24.426-.018-15.6-1.819-30.186-4.954-42.532-9.148-.838-18.321-1.292-27.501-1.31zm.626 136.308c20.066.022 40.141 6.73 40.141 20.099v81.022l79.997 159.368c35.917 71.56-276.097 71.579-240.219 0l80.339-160.165-.342-80.339c-.051-13.369 20.018-20.007 40.084-19.985z"/></svg>